<svg id="Layer_1" data-name="Layer 1" xmlns="http://www.w3.org/2000/svg" viewBox="0 0 500 500"><defs><style>.cls-1{fill:#e4a338;}.cls-2{fill:#f7ba61;}</style></defs><title>mont_500x500</title><path class="cls-1" d="M256.41,294.44c-4,11.49-11,15.53-19.57,25.25a104.1,104.1,0,0,0-11.77,16H90.33a4.62,4.62,0,0,1-4-6.91l51.4-89,51.8-89.71a4.16,4.16,0,0,1,7.18,0L241,226.89a45.86,45.86,0,0,0-2,15.61v.13a35.53,35.53,0,0,0,.82,6,44.5,44.5,0,0,0,3.36,9.24c3.28,6.63,4.65,5.2,10.19,14.16,3.63,5.95,4.25,8.55,4.52,10.27A26.24,26.24,0,0,1,256.41,294.44Z"/><path class="cls-2" d="M416.13,327.28,364.74,218.75l-51.8-109.42c-1.57-3.35-5.54-3.35-7.19,0L254,218.75l-4.17,8.9c.48,4.79,1.78,10.26,4.72,14.3a33.63,33.63,0,0,0,4.72,5c4.72,4,8.14,4,13.89,11.7a62.94,62.94,0,0,1,11,24.22c.2.89.34,1.64.41,2.05a60.31,60.31,0,0,1,.48,18.21c-.1.78-.26,1.59-.38,2.39s-.2,1.61-.37,2.4a78.63,78.63,0,0,1-5.75,17.81,77.63,77.63,0,0,1-5.34,10h139C415.72,335.7,417.91,331,416.13,327.28Z"/><path class="cls-1" d="M250.69,448.55a198.55,198.55,0,0,1-140.4-339A198.55,198.55,0,1,1,391.08,390.4,197.24,197.24,0,0,1,250.69,448.55Zm0-387.19a188.65,188.65,0,1,0,133.38,55.25A187.4,187.4,0,0,0,250.69,61.36Z"/></svg>
